<svg xmlns="http://www.w3.org/2000/svg" viewBox="0 0 497.08 747.49"><defs><style>.cls-1{fill:#6C71F8;}.cls-2{fill:#6C71F8;}</style></defs><title>icon</title><g id="Слой_2"><g id="Слой_1-2"><path class="cls-1" d="M487.51,0h-301V186.52h301a9.79,9.79,0,0,0,9.57-10V10A9.79,9.79,0,0,0,487.51,0Z"/><path class="cls-1" d="M487,372.91l-162.5.13H0V559.56H320.4a10,10,0,0,0,7.07-2.93L494.13,390A10,10,0,0,0,487,372.91Z"/><path class="cls-2" d="M186.52,738.38V0L2.93,167.22A8.72,8.72,0,0,0,0,173.66V738.38c0,5,4.48,9.11,10,9.11H176.52C182,747.49,186.52,743.41,186.52,738.38Z"/></g></g></svg>